<svg width="540" height="960" xmlns="http://www.w3.org/2000/svg" xmlns:xlink="http://www.w3.org/1999/xlink" overflow="hidden"><g><rect x="0" y="0" width="540" height="960" fill="#FFFFFF"/><path d="M5.50005 108C5.50005 104.962 7.96249 102.5 11.0001 102.5L91 102.5C94.0376 102.5 96.5001 104.962 96.5001 108L96.5001 152C96.5001 155.038 94.0376 157.5 91 157.5L11.0001 157.5C7.96249 157.5 5.50005 155.038 5.50005 152Z" stroke="#E7E6E6" stroke-width="1.33333" stroke-miterlimit="8" fill="#44546A" fill-rule="evenodd"/><text fill="#FFFFFF" font-family="DengXian,DengXian_MSFontService,sans-serif" font-weight="700" font-size="9" transform="translate(13.0812 132)">数据获取与预处理</text><path d="M57.4 192 57.4 265.5 62 265.5 50.5 277 39 265.5 43.6 265.5 43.6 192Z" fill="#B0B3B9" fill-rule="evenodd"/><path d="M5.50005 323C5.50005 319.962 7.96249 317.5 11.0001 317.5L91 317.5C94.0376 317.5 96.5001 319.962 96.5001 323L96.5001 367C96.5001 370.038 94.0376 372.5 91 372.5L11.0001 372.5C7.96249 372.5 5.50005 370.038 5.50005 367Z" stroke="#E7E6E6" stroke-width="1.33333" stroke-miterlimit="8" fill="#44546A" fill-rule="evenodd"/><text fill="#FFFFFF" font-family="DengXian,DengXian_MSFontService,sans-serif" font-weight="700" font-size="9" transform="translate(31.7478 339)">模型构建</text><text fill="#FFFFFF" font-family="DengXian,DengXian_MSFontService,sans-serif" font-weight="700" font-size="9" transform="translate(27.0812 355)">与特征提取</text><path d="M57.4001 404 57.4001 470.5 62.0001 470.5 50.5001 482 39.0001 470.5 43.6001 470.5 43.6001 404Z" fill="#B0B3B9" fill-rule="evenodd"/><path d="M5.50005 525C5.50005 521.963 7.96249 519.5 11.0001 519.5L91 519.5C94.0376 519.5 96.5001 521.963 96.5001 525L96.5001 569C96.5001 572.038 94.0376 574.5 91 574.5L11.0001 574.5C7.96249 574.5 5.50005 572.038 5.50005 569Z" stroke="#E7E6E6" stroke-width="1.33333" stroke-miterlimit="8" fill="#44546A" fill-rule="evenodd"/><text fill="#FFFFFF" font-family="DengXian,DengXian_MSFontService,sans-serif" font-weight="700" font-size="9" transform="translate(31.7478 541)">分类预测</text><text fill="#FFFFFF" font-family="DengXian,DengXian_MSFontService,sans-serif" font-weight="700" font-size="9" transform="translate(27.0812 557)">与</text><text fill="#FFFFFF" font-family="DengXian,DengXian_MSFontService,sans-serif" font-weight="700" font-size="9" transform="translate(36.4145 557)">消融实验</text><path d="M57.4 598 57.4 643.5 62 643.5 50.5 655 39 643.5 43.6 643.5 43.6 598Z" fill="#B0B3B9" fill-rule="evenodd"/><path d="M5.50005 688C5.50005 684.963 7.96249 682.5 11.0001 682.5L91 682.5C94.0376 682.5 96.5001 684.963 96.5001 688L96.5001 732C96.5001 735.038 94.0376 737.5 91 737.5L11.0001 737.5C7.96249 737.5 5.50005 735.038 5.50005 732Z" stroke="#E7E6E6" stroke-width="1.33333" stroke-miterlimit="8" fill="#44546A" fill-rule="evenodd"/><text fill="#FFFFFF" font-family="DengXian,DengXian_MSFontService,sans-serif" font-weight="700" font-size="9" transform="translate(17.7478 711)">生物学意义分析</text><path d="M5 12.5001C5 10.0148 7.01475 8 9.50007 8L104.5 8C106.985 8 109 10.0148 109 12.5001L109 30.4999C109 32.9852 106.985 35 104.5 35L9.50007 35C7.01475 35 5 32.9852 5 30.4999Z" stroke="#FFFFFF" stroke-width="2" stroke-miterlimit="8" fill="#333F50" fill-rule="evenodd"/><text fill="#FFFFFF" font-family="DengXian,DengXian_MSFontService,sans-serif" font-weight="400" font-size="16" transform="translate(24.6332 27)">研究框架</text><path d="M265 12.5001C265 10.0148 267.015 8 269.5 8L364.5 8C366.985 8 369 10.0148 369 12.5001L369 30.4999C369 32.9852 366.985 35 364.5 35L269.5 35C267.015 35 265 32.9852 265 30.4999Z" stroke="#FFFFFF" stroke-width="2" stroke-miterlimit="8" fill="#333F50" fill-rule="evenodd"/><text fill="#FFFFFF" font-family="DengXian,DengXian_MSFontService,sans-serif" font-weight="400" font-size="15" transform="translate(287.984 27)">研究内容</text><rect x="123.5" y="43.5001" width="407" height="168" stroke="#172C51" stroke-width="1.33333" stroke-miterlimit="8" stroke-dasharray="5.33333 4" fill="none"/><path d="M132.5 138.9C132.5 137.575 135.037 136.5 138.167 136.5L228.833 136.5C231.963 136.5 234.5 137.575 234.5 138.9L234.5 158.1C234.5 159.426 231.963 160.5 228.833 160.5L138.167 160.5C135.037 160.5 132.5 159.426 132.5 158.1L132.5 138.9Z" stroke="#3D4B5F" stroke-width="1.33333" stroke-miterlimit="8" fill="#EFF7EC" fill-rule="evenodd"/><text fill="#44546A" font-family="Calibri,Calibri_MSFontService,sans-serif" font-weight="700" font-size="10" transform="translate(154.693 151)">TPM</text><text fill="#44546A" font-family="DengXian,DengXian_MSFontService,sans-serif" font-weight="700" font-size="10" transform="translate(173.026 151)">数据获取</text><path d="M132.5 173.9C132.5 172.575 135.037 171.5 138.167 171.5L228.833 171.5C231.963 171.5 234.5 172.575 234.5 173.9L234.5 193.1C234.5 194.426 231.963 195.5 228.833 195.5L138.167 195.5C135.037 195.5 132.5 194.426 132.5 193.1L132.5 173.9Z" stroke="#3D4B5F" stroke-width="1.33333" stroke-miterlimit="8" fill="#EFF7EC" fill-rule="evenodd"/><text fill="#44546A" font-family="DengXian,DengXian_MSFontService,sans-serif" font-weight="700" font-size="8" transform="translate(158.693 186)">缺失数据清洗</text><path d="M345.5 525.7C345.5 524.485 347.482 523.5 349.926 523.5L515.074 523.5C517.518 523.5 519.5 524.485 519.5 525.7L519.5 543.3C519.5 544.515 517.518 545.5 515.074 545.5L349.926 545.5C347.482 545.5 345.5 544.515 345.5 543.3L345.5 525.7Z" stroke="#3D4B5F" stroke-width="1.33333" stroke-miterlimit="8" fill="#B5F4FD" fill-rule="evenodd"/><text fill="#44546A" font-family="DengXian,DengXian_MSFontService,sans-serif" font-weight="700" font-size="12" transform="translate(407.933 537)">残差连接</text><path d="M345.5 557.7C345.5 556.485 347.482 555.5 349.926 555.5L515.074 555.5C517.518 555.5 519.5 556.485 519.5 557.7L519.5 575.3C519.5 576.515 517.518 577.5 515.074 577.5L349.926 577.5C347.482 577.5 345.5 576.515 345.5 575.3L345.5 557.7Z" stroke="#3D4B5F" stroke-width="1.33333" stroke-miterlimit="8" fill="#B5F4FD" fill-rule="evenodd"/><text fill="#44546A" font-family="DengXian,DengXian_MSFontService,sans-serif" font-weight="400" font-size="12" transform="translate(368.517 570)">激活函数</text><text fill="#44546A" font-family="DengXian,DengXian_MSFontService,sans-serif" font-weight="700" font-size="12" transform="translate(419.183 570)">Swish</text><text fill="#44546A" font-family="DengXian,DengXian_MSFontService,sans-serif" font-weight="400" font-size="12" transform="translate(453.35 570)">vs</text><text fill="#44546A" font-family="DengXian,DengXian_MSFontService,sans-serif" font-weight="700" font-size="12" transform="translate(467.183 570)">ReLU</text><path d="M345.5 590.6C345.5 589.44 347.482 588.5 349.926 588.5L515.074 588.5C517.518 588.5 519.5 589.44 519.5 590.6L519.5 607.4C519.5 608.56 517.518 609.5 515.074 609.5L349.926 609.5C347.482 609.5 345.5 608.56 345.5 607.4L345.5 590.6Z" stroke="#3D4B5F" stroke-width="1.33333" stroke-miterlimit="8" fill="#B5F4FD" fill-rule="evenodd"/><text fill="#44546A" font-family="DengXian,DengXian_MSFontService,sans-serif" font-weight="700" font-size="12" transform="translate(349.433 602)">Focal Loss</text><text fill="#44546A" font-family="DengXian,DengXian_MSFontService,sans-serif" font-weight="400" font-size="12" transform="translate(407.767 602)">vs</text><text fill="#44546A" font-family="Calibri,Calibri_MSFontService,sans-serif" font-weight="700" font-size="12" transform="translate(421.6 602)">Cross Entropy Loss</text><path d="M396.5 136C396.5 134.619 399.435 133.5 403.056 133.5L507.945 133.5C511.565 133.5 514.5 134.619 514.5 136L514.5 156C514.5 157.381 511.565 158.5 507.945 158.5L403.056 158.5C399.435 158.5 396.5 157.381 396.5 156L396.5 136Z" stroke="#3D4B5F" stroke-width="1.33333" stroke-miterlimit="8" fill="#EFF7EC" fill-rule="evenodd"/><text fill="#44546A" font-family="DengXian,DengXian_MSFontService,sans-serif" font-weight="700" font-size="10" transform="translate(416.535 148)">样本分期标签归类</text><path d="M396.5 174C396.5 172.619 399.435 171.5 403.056 171.5L507.945 171.5C511.565 171.5 514.5 172.619 514.5 174L514.5 194C514.5 195.381 511.565 196.5 507.945 196.5L403.056 196.5C399.435 196.5 396.5 195.381 396.5 194L396.5 174Z" stroke="#3D4B5F" stroke-width="1.33333" stroke-miterlimit="8" fill="#EFF7EC" fill-rule="evenodd"/><text fill="#44546A" font-family="DengXian,DengXian_MSFontService,sans-serif" font-weight="700" font-size="9" transform="translate(406.202 186)">数据集按</text><text fill="#44546A" font-family="Calibri,Calibri_MSFontService,sans-serif" font-weight="700" font-size="9" transform="translate(443.535 186)">7 : 1.5 : 1.5</text><text fill="#44546A" font-family="DengXian,DengXian_MSFontService,sans-serif" font-weight="700" font-size="9" transform="translate(485.535 186)">划分</text><path d="M132.5 92.9001C132.5 91.0223 135.213 89.5001 138.56 89.5001L227.44 89.5001C230.787 89.5001 233.5 91.0223 233.5 92.9001L233.5 120.1C233.5 121.978 230.787 123.5 227.44 123.5L138.56 123.5C135.213 123.5 132.5 121.978 132.5 120.1L132.5 92.9001Z" stroke="#000000" stroke-width="1.33333" stroke-miterlimit="8" fill="#AEF8DC" fill-rule="evenodd"/><text font-family="Calibri,Calibri_MSFontService,sans-serif" font-weight="700" font-size="10" transform="translate(156.549 102)">TCGA</text><text font-family="Calibri,Calibri_MSFontService,sans-serif" font-weight="700" font-size="10" transform="translate(178.382 102)">—</text><text font-family="Calibri,Calibri_MSFontService,sans-serif" font-weight="700" font-size="10" transform="translate(187.049 102)">BRCA</text><text font-family="DengXian,DengXian_MSFontService,sans-serif" font-weight="400" font-size="10" transform="translate(148.716 116)">数据获取与筛选</text><path d="M237.342 101.698 253.671 101.698 253.671 98.3246 270 106.758 253.671 115.191 253.671 111.818 237.342 111.817 237.342 101.698Z" fill="#AAAAAA" fill-rule="evenodd"/><path d="M271.5 91.0001C271.5 89.0671 273.971 87.5001 277.02 87.5001L357.98 87.5001C361.029 87.5001 363.5 89.0671 363.5 91.0001L363.5 119C363.5 120.933 361.029 122.5 357.98 122.5L277.02 122.5C273.971 122.5 271.5 120.933 271.5 119L271.5 91.0001Z" stroke="#000000" stroke-width="1.33333" stroke-miterlimit="8" fill="#AEF8DC" fill-rule="evenodd"/><text font-family="DengXian,DengXian_MSFontService,sans-serif" font-weight="400" font-size="10" transform="translate(292.864 107)">数据预处理</text><path d="M396.5 92.9001C396.5 91.0223 399.67 89.5001 403.58 89.5001L507.42 89.5001C511.33 89.5001 514.5 91.0223 514.5 92.9001L514.5 120.1C514.5 121.978 511.33 123.5 507.42 123.5L403.58 123.5C399.67 123.5 396.5 121.978 396.5 120.1L396.5 92.9001Z" stroke="#000000" stroke-width="1.33333" stroke-miterlimit="8" fill="#AEF8DC" fill-rule="evenodd"/><text font-family="DengXian,DengXian_MSFontService,sans-serif" font-weight="400" font-size="10" transform="translate(419.035 108)">数据分类与划分</text><rect x="128.5" y="84.5001" width="116" height="121" stroke="#172C51" stroke-width="1.33333" stroke-miterlimit="8" stroke-dasharray="5.33333 4" fill="none"/><rect x="265.5" y="82.5001" width="104" height="123" stroke="#172C51" stroke-width="1.33333" stroke-miterlimit="8" stroke-dasharray="5.33333 4" fill="none"/><rect x="385.5" y="83.5001" width="138" height="122" stroke="#172C51" stroke-width="1.33333" stroke-miterlimit="8" stroke-dasharray="5.33333 4" fill="none"/><path d="M202.5 54.8334C202.5 52.9924 203.992 51.5001 205.833 51.5001L438.167 51.5001C440.008 51.5001 441.5 52.9924 441.5 54.8334L441.5 68.1667C441.5 70.0077 440.008 71.5001 438.167 71.5001L205.833 71.5001C203.992 71.5001 202.5 70.0077 202.5 68.1667Z" stroke="#172C51" stroke-width="1.33333" stroke-miterlimit="8" fill="#CDFBE9" fill-rule="evenodd"/><text font-family="DengXian,DengXian_MSFontService,sans-serif" font-weight="700" font-size="12" transform="translate(261.842 64)">实验数据获取与预处理</text><path d="M366.27 100.768 380.385 100.769 380.385 97.4394 394.5 105.763 380.385 114.086 380.385 110.757 366.269 110.757 366.27 100.768Z" fill="#AAAAAA" fill-rule="evenodd"/><rect x="123.5" y="223.5" width="406" height="242" stroke="#172C51" stroke-width="1.33333" stroke-miterlimit="8" stroke-dasharray="5.33333 4" fill="none"/><rect x="132.5" y="306.5" width="293" height="155" stroke="#172C51" stroke-width="1.33333" stroke-miterlimit="8" stroke-dasharray="5.33333 4" fill="none"/><rect x="128.5" y="260.5" width="298" height="38" stroke="#172C51" stroke-width="1.33333" stroke-miterlimit="8" stroke-dasharray="5.33333 4" fill="none"/><path d="M202.5 235.833C202.5 233.992 203.992 232.5 205.833 232.5L438.167 232.5C440.008 232.5 441.5 233.992 441.5 235.833L441.5 249.167C441.5 251.008 440.008 252.5 438.167 252.5L205.833 252.5C203.992 252.5 202.5 251.008 202.5 249.167Z" stroke="#172C51" stroke-width="1.33333" stroke-miterlimit="8" fill="#F2F1C6" fill-rule="evenodd"/><text font-family="Calibri,Calibri_MSFontService,sans-serif" font-weight="700" font-size="12" transform="translate(269.342 246)">GAT</text><text font-family="DengXian,DengXian_MSFontService,sans-serif" font-weight="700" font-size="12" transform="translate(290.342 246)">搭建与特征提取</text><path d="M150.5 314C150.5 312.619 151.619 311.5 153 311.5L405 311.5C406.381 311.5 407.5 312.619 407.5 314L407.5 324C407.5 325.381 406.381 326.5 405 326.5L153 326.5C151.619 326.5 150.5 325.381 150.5 324Z" stroke="#172C51" stroke-width="1.33333" stroke-miterlimit="8" fill="#FFE699" fill-rule="evenodd"/><text font-family="DengXian,DengXian_MSFontService,sans-serif" font-weight="400" font-size="13" transform="translate(244.843 323)">图嵌入特征</text><path d="M134.5 271.833C134.5 269.992 135.992 268.5 137.833 268.5L420.167 268.5C422.008 268.5 423.5 269.992 423.5 271.833L423.5 285.167C423.5 287.008 422.008 288.5 420.167 288.5L137.833 288.5C135.992 288.5 134.5 287.008 134.5 285.167Z" stroke="#172C51" stroke-width="1.33333" stroke-miterlimit="8" fill="#FFE699" fill-rule="evenodd"/><text font-family="DengXian,DengXian_MSFontService,sans-serif" font-weight="400" font-size="11" transform="translate(234.393 281)">原始基因表达特征</text><path d="M0-3 101.922-3 101.922 221.64 89.9217 221.64 89.9217 215.64 98.9221 215.64 95.9221 218.64 95.9221 0 98.9221 3 0 3ZM92.9217 227.64 74.9217 218.64 92.9217 209.64Z" fill="#181717" transform="matrix(-1 1.22465e-16 1.22465e-16 1 202.922 61)"/><path d="M149.5 338.5C149.5 336.843 150.843 335.5 152.5 335.5L395.5 335.5C397.157 335.5 398.5 336.843 398.5 338.5L398.5 350.5C398.5 352.157 397.157 353.5 395.5 353.5L152.5 353.5C150.843 353.5 149.5 352.157 149.5 350.5Z" stroke="#0D0D0D" stroke-width="1.33333" stroke-miterlimit="8" fill="#FCEFC1" fill-rule="evenodd"/><text font-family="DengXian,DengXian_MSFontService,sans-serif" font-weight="400" font-size="13" transform="translate(200.403 348)">输入：样本基因表达特征</text><path d="M144.5 439.5C144.5 437.843 145.843 436.5 147.5 436.5L407.5 436.5C409.157 436.5 410.5 437.843 410.5 439.5L410.5 451.5C410.5 453.157 409.157 454.5 407.5 454.5L147.5 454.5C145.843 454.5 144.5 453.157 144.5 451.5Z" stroke="#0D0D0D" stroke-width="1.33333" stroke-miterlimit="8" fill="#FCEFC1" fill-rule="evenodd"/><text font-family="DengXian,DengXian_MSFontService,sans-serif" font-weight="400" font-size="13" transform="translate(223.886 449)">输出：图嵌入特征</text><path d="M483.5 237.667C483.5 234.813 485.813 232.5 488.667 232.5L509.333 232.5C512.187 232.5 514.5 234.813 514.5 237.667L514.5 445.333C514.5 448.187 512.187 450.5 509.333 450.5L488.667 450.5C485.813 450.5 483.5 448.187 483.5 445.333Z" stroke="#172C51" stroke-width="1.33333" stroke-miterlimit="8" fill="#FFE699" fill-rule="evenodd"/><text font-family="DengXian,DengXian_MSFontService,sans-serif" font-weight="400" font-size="13" transform="translate(492.015 321)">融</text><text font-family="DengXian,DengXian_MSFontService,sans-serif" font-weight="400" font-size="13" transform="translate(492.015 337)">合</text><text font-family="DengXian,DengXian_MSFontService,sans-serif" font-weight="400" font-size="13" transform="translate(492.015 353)">特</text><text font-family="DengXian,DengXian_MSFontService,sans-serif" font-weight="400" font-size="13" transform="translate(492.015 369)">征</text><path d="M426 278 455.393 278 455.393 340.74 454.393 339.74 476.12 339.74 476.12 341.74 453.393 341.74 453.393 279 454.393 280 426 280ZM474.787 336.74 482.787 340.74 474.787 344.74Z"/><path d="M0-1 29.9223-1 29.9223 42.7326 28.9223 41.7326 51.178 41.7326 51.178 43.7326 27.9223 43.7326 27.9223 0 28.9223 1 0 1ZM49.8446 38.7326 57.8446 42.7326 49.8446 46.7326Z" transform="matrix(1 0 0 -1 425 383.733)"/><rect x="123.5" y="480.5" width="406" height="149" stroke="#172C51" stroke-width="1.33333" stroke-miterlimit="8" stroke-dasharray="5.33333 4" fill="none"/><path d="M168.5 489.167C168.5 487.142 170.142 485.5 172.167 485.5L283.833 485.5C285.858 485.5 287.5 487.142 287.5 489.167L287.5 503.833C287.5 505.858 285.858 507.5 283.833 507.5L172.167 507.5C170.142 507.5 168.5 505.858 168.5 503.833Z" stroke="#172C51" stroke-width="1.33333" stroke-miterlimit="8" fill="#9DCFF1" fill-rule="evenodd"/><text font-family="DengXian,DengXian_MSFontService,sans-serif" font-weight="700" font-size="11" transform="translate(195.337 500)">分类预测评估</text><rect x="135.5" y="513.5" width="188" height="109" stroke="#172C51" stroke-width="1.33333" stroke-miterlimit="8" stroke-dasharray="5.33333 4" fill="none"/><text fill="#FFFFFF" font-family="Calibri,Calibri_MSFontService,sans-serif" font-weight="400" font-size="7" transform="translate(227.594 571)">c</text><path d="M369.5 490.167C369.5 488.142 371.142 486.5 373.167 486.5L484.833 486.5C486.858 486.5 488.5 488.142 488.5 490.167L488.5 504.833C488.5 506.858 486.858 508.5 484.833 508.5L373.167 508.5C371.142 508.5 369.5 506.858 369.5 504.833Z" stroke="#172C51" stroke-width="1.33333" stroke-miterlimit="8" fill="#9DCFF1" fill-rule="evenodd"/><text font-family="DengXian,DengXian_MSFontService,sans-serif" font-weight="700" font-size="11" transform="translate(396.491 501)">关键组件验证</text><rect x="337.5" y="513.5" width="188" height="109" stroke="#172C51" stroke-width="1.33333" stroke-miterlimit="8" stroke-dasharray="5.33333 4" fill="none"/><path d="M273.5 130.5C273.5 129.395 274.536 128.5 275.815 128.5L362.185 128.5C363.464 128.5 364.5 129.395 364.5 130.5L364.5 146.5C364.5 147.605 363.464 148.5 362.185 148.5L275.815 148.5C274.536 148.5 273.5 147.605 273.5 146.5L273.5 130.5Z" stroke="#3D4B5F" stroke-width="1.33333" stroke-miterlimit="8" fill="#EFF7EC" fill-rule="evenodd"/><text fill="#44546A" font-family="Calibri,Calibri_MSFontService,sans-serif" font-weight="400" font-size="11" transform="translate(287.513 141)">Log(X+1)</text><text fill="#44546A" font-family="DengXian,DengXian_MSFontService,sans-serif" font-weight="400" font-size="11" transform="translate(327.513 141)">转换</text><path d="M273.5 157.4C273.5 156.351 274.536 155.5 275.815 155.5L362.185 155.5C363.464 155.5 364.5 156.351 364.5 157.4L364.5 172.6C364.5 173.649 363.464 174.5 362.185 174.5L275.815 174.5C274.536 174.5 273.5 173.649 273.5 172.6L273.5 157.4Z" stroke="#3D4B5F" stroke-width="1.33333" stroke-miterlimit="8" fill="#EFF7EC" fill-rule="evenodd"/><text fill="#44546A" font-family="DengXian,DengXian_MSFontService,sans-serif" font-weight="700" font-size="8" transform="translate(276.43 167)">低表达</text><text fill="#44546A" font-family="Calibri,Calibri_MSFontService,sans-serif" font-weight="700" font-size="8" transform="translate(300.43 167)">/</text><text fill="#44546A" font-family="DengXian,DengXian_MSFontService,sans-serif" font-weight="700" font-size="8" transform="translate(303.93 167)">低变异基因过滤</text><path d="M273.5 183.5C273.5 182.395 274.536 181.5 275.815 181.5L362.185 181.5C363.464 181.5 364.5 182.395 364.5 183.5L364.5 199.5C364.5 200.605 363.464 201.5 362.185 201.5L275.815 201.5C274.536 201.5 273.5 200.605 273.5 199.5L273.5 183.5Z" stroke="#3D4B5F" stroke-width="1.33333" stroke-miterlimit="8" fill="#EFF7EC" fill-rule="evenodd"/><text fill="#44546A" font-family="Calibri,Calibri_MSFontService,sans-serif" font-weight="700" font-size="8" transform="translate(281.346 194)">Limma</text><text fill="#44546A" font-family="DengXian,DengXian_MSFontService,sans-serif" font-weight="700" font-size="8" transform="translate(306.013 194)">差异表达分析</text><rect x="123.5" y="642.5" width="407" height="95" stroke="#172C51" stroke-width="1.33333" stroke-miterlimit="8" stroke-dasharray="5.33333 4" fill="none"/><path d="M160.5 653.167C160.5 651.142 162.142 649.5 164.167 649.5L467.833 649.5C469.858 649.5 471.5 651.142 471.5 653.167L471.5 667.833C471.5 669.858 469.858 671.5 467.833 671.5L164.167 671.5C162.142 671.5 160.5 669.858 160.5 667.833Z" stroke="#172C51" stroke-width="1.33333" stroke-miterlimit="8" fill="#FEC2C4" fill-rule="evenodd"/><text font-family="DengXian,DengXian_MSFontService,sans-serif" font-weight="700" font-size="11" transform="translate(273.019 664)">基因调控网络分析</text><path d="M135.5 685.3C135.5 682.649 137.649 680.5 140.3 680.5L203.7 680.5C206.351 680.5 208.5 682.649 208.5 685.3L208.5 723.7C208.5 726.351 206.351 728.5 203.7 728.5L140.3 728.5C137.649 728.5 135.5 726.351 135.5 723.7Z" stroke="#3D4B5F" stroke-width="1.33333" stroke-miterlimit="8" fill="#FCE3E5" fill-rule="evenodd"/><text fill="#44546A" font-family="DengXian,DengXian_MSFontService,sans-serif" font-weight="400" font-size="9" transform="translate(143.741 700)">不同特征</text><text fill="#44546A" font-family="DengXian,DengXian_MSFontService,sans-serif" font-weight="400" font-size="9" transform="translate(181.075 700)">对模</text><text fill="#44546A" font-family="DengXian,DengXian_MSFontService,sans-serif" font-weight="400" font-size="9" transform="translate(143.741 711)">型的贡献比例</text><path d="M215 698.6 223 698.6 223 695 231 704 223 713 223 709.4 215 709.4Z" fill="#B0B3B9" fill-rule="evenodd"/><path d="M237.5 685.3C237.5 682.649 239.649 680.5 242.3 680.5L305.7 680.5C308.351 680.5 310.5 682.649 310.5 685.3L310.5 723.7C310.5 726.351 308.351 728.5 305.7 728.5L242.3 728.5C239.649 728.5 237.5 726.351 237.5 723.7Z" stroke="#3D4B5F" stroke-width="1.33333" stroke-miterlimit="8" fill="#FCE3E5" fill-rule="evenodd"/><text fill="#44546A" font-family="DengXian,DengXian_MSFontService,sans-serif" font-weight="400" font-size="9" transform="translate(245.787 706)">重要特征排序</text><path d="M317 698.6 324.5 698.6 324.5 695 332 704 324.5 713 324.5 709.4 317 709.4Z" fill="#B0B3B9" fill-rule="evenodd"/><path d="M338.5 684.4C338.5 681.694 340.694 679.5 343.4 679.5L406.6 679.5C409.306 679.5 411.5 681.694 411.5 684.4L411.5 723.6C411.5 726.306 409.306 728.5 406.6 728.5L343.4 728.5C340.694 728.5 338.5 726.306 338.5 723.6Z" stroke="#3D4B5F" stroke-width="1.33333" stroke-miterlimit="8" fill="#FCE3E5" fill-rule="evenodd"/><text fill="#44546A" font-family="DengXian,DengXian_MSFontService,sans-serif" font-weight="400" font-size="9" transform="translate(346.841 706)">关键特征解读</text><path d="M419 698.6 427 698.6 427 695 435 704 427 713 427 709.4 419 709.4Z" fill="#B0B3B9" fill-rule="evenodd"/><path d="M441.5 684.4C441.5 681.694 443.694 679.5 446.4 679.5L509.6 679.5C512.306 679.5 514.5 681.694 514.5 684.4L514.5 723.6C514.5 726.306 512.306 728.5 509.6 728.5L446.4 728.5C443.694 728.5 441.5 726.306 441.5 723.6Z" stroke="#3D4B5F" stroke-width="1.33333" stroke-miterlimit="8" fill="#FCE3E5" fill-rule="evenodd"/><text fill="#44546A" font-family="DengXian,DengXian_MSFontService,sans-serif" font-weight="400" font-size="9" transform="translate(449.878 706)">基因</text><text fill="#44546A" font-family="DengXian,DengXian_MSFontService,sans-serif" font-weight="400" font-size="9" transform="translate(468.545 706)">交互</text><text fill="#44546A" font-family="DengXian,DengXian_MSFontService,sans-serif" font-weight="400" font-size="9" transform="translate(487.212 706)">分析</text><rect x="260" y="373" width="39" height="5" fill="#B0B3B9"/><path d="M162.5 361.9C162.5 360.022 164.022 358.5 165.9 358.5L268.1 358.5C269.978 358.5 271.5 360.022 271.5 361.9L271.5 389.1C271.5 390.978 269.978 392.5 268.1 392.5L165.9 392.5C164.022 392.5 162.5 390.978 162.5 389.1Z" stroke="#3D4B5F" stroke-width="1.33333" stroke-miterlimit="8" fill="#FEF7ED" fill-rule="evenodd"/><text font-family="DengXian,DengXian_MSFontService,sans-serif" font-weight="700" font-size="8" transform="translate(180.771 377)">为构建基因全连接图</text><rect x="202" y="412" width="124" height="5" fill="#B0B3B9"/><path d="M162.5 401.9C162.5 400.022 164.022 398.5 165.9 398.5L268.1 398.5C269.978 398.5 271.5 400.022 271.5 401.9L271.5 429.1C271.5 430.978 269.978 432.5 268.1 432.5L165.9 432.5C164.022 432.5 162.5 430.978 162.5 429.1Z" stroke="#3D4B5F" stroke-width="1.33333" stroke-miterlimit="8" fill="#FEF7ED" fill-rule="evenodd"/><text font-family="DengXian,DengXian_MSFontService,sans-serif" font-weight="700" font-size="8" transform="translate(176.691 417)">簇池化</text><text font-family="DengXian,DengXian_MSFontService,sans-serif" font-weight="700" font-size="8" transform="translate(200.691 417)">得到低维图特征</text><rect x="325" y="365" width="5" height="42" fill="#B0B3B9"/><path d="M289.5 401.9C289.5 400.022 291.022 398.5 292.9 398.5L395.1 398.5C396.978 398.5 398.5 400.022 398.5 401.9L398.5 429.1C398.5 430.978 396.978 432.5 395.1 432.5L292.9 432.5C291.022 432.5 289.5 430.978 289.5 429.1Z" stroke="#3D4B5F" stroke-width="1.33333" stroke-miterlimit="8" fill="#FEF7ED" fill-rule="evenodd"/><text font-family="DengXian,DengXian_MSFontService,sans-serif" font-weight="700" font-size="8" transform="translate(319.83 410)">最大最小池化</text><text font-family="DengXian,DengXian_MSFontService,sans-serif" font-weight="700" font-size="8" transform="translate(323.83 423)">获得图特征</text><path d="M289.5 359.9C289.5 358.022 291.022 356.5 292.9 356.5L395.1 356.5C396.978 356.5 398.5 358.022 398.5 359.9L398.5 387.1C398.5 388.978 396.978 390.5 395.1 390.5L292.9 390.5C291.022 390.5 289.5 388.978 289.5 387.1Z" stroke="#3D4B5F" stroke-width="1.33333" stroke-miterlimit="8" fill="#FEF7ED" fill-rule="evenodd"/><text font-family="Calibri,Calibri_MSFontService,sans-serif" font-weight="700" font-size="8" transform="translate(316.877 375)">GAT</text><text font-family="DengXian,DengXian_MSFontService,sans-serif" font-weight="700" font-size="8" transform="translate(330.783 375)">更新图信息</text><path d="M311.667 521.5C313.784 521.5 315.5 523.216 315.5 525.334L315.5 540.667C315.5 542.784 313.784 544.5 311.667 544.5L239.333 544.5C237.216 544.5 235.5 542.784 235.5 540.667L235.5 525.334C235.5 523.216 237.216 521.5 239.333 521.5Z" stroke="#000000" stroke-width="1.33333" stroke-miterlimit="8" fill="#D7F5F7" fill-rule="evenodd"/><text font-family="DengXian,DengXian_MSFontService,sans-serif" font-weight="700" font-size="11" transform="translate(253.9 536)">XGBoos</text><text font-family="DengXian,DengXian_MSFontService,sans-serif" font-weight="700" font-size="12" transform="translate(291.9 536)">t</text><path d="M310.667 557.5C312.784 557.5 314.5 559.216 314.5 561.334L314.5 576.667C314.5 578.784 312.784 580.5 310.667 580.5L238.333 580.5C236.216 580.5 234.5 578.784 234.5 576.667L234.5 561.334C234.5 559.216 236.216 557.5 238.333 557.5Z" stroke="#000000" stroke-width="1.33333" stroke-miterlimit="8" fill="#D7F5F7" fill-rule="evenodd"/><text font-family="Calibri,Calibri_MSFontService,sans-serif" font-weight="400" font-size="14" transform="translate(267.073 572)">RF</text><path d="M310.667 593.5C312.784 593.5 314.5 595.216 314.5 597.334L314.5 612.667C314.5 614.784 312.784 616.5 310.667 616.5L238.333 616.5C236.216 616.5 234.5 614.784 234.5 612.667L234.5 597.334C234.5 595.216 236.216 593.5 238.333 593.5Z" stroke="#000000" stroke-width="1.33333" stroke-miterlimit="8" fill="#D7F5F7" fill-rule="evenodd"/><text font-family="Calibri,Calibri_MSFontService,sans-serif" font-weight="400" font-size="14" transform="translate(261.334 608)">SVM</text><path d="M144.5 526C144.5 523.515 146.515 521.5 149 521.5L206 521.5C208.485 521.5 210.5 523.515 210.5 526L210.5 544C210.5 546.485 208.485 548.5 206 548.5L149 548.5C146.515 548.5 144.5 546.485 144.5 544Z" stroke="#3D4B5F" stroke-width="1.33333" stroke-miterlimit="8" fill="#BDD5EC" fill-rule="evenodd"/><text fill="#44546A" font-family="DengXian,DengXian_MSFontService,sans-serif" font-weight="700" font-size="13" transform="translate(150.256 539)">原始</text><text fill="#44546A" font-family="DengXian,DengXian_MSFontService,sans-serif" font-weight="700" font-size="13" transform="translate(176.923 539)">特征</text><path d="M144.5 560.833C144.5 558.44 146.44 556.5 148.833 556.5L207.167 556.5C209.56 556.5 211.5 558.44 211.5 560.833L211.5 578.167C211.5 580.56 209.56 582.5 207.167 582.5L148.833 582.5C146.44 582.5 144.5 580.56 144.5 578.167Z" stroke="#3D4B5F" stroke-width="1.33333" stroke-miterlimit="8" fill="#BDD5EC" fill-rule="evenodd"/><text fill="#44546A" font-family="DengXian,DengXian_MSFontService,sans-serif" font-weight="700" font-size="13" transform="translate(157.739 573)">图特征</text><path d="M144.5 595C144.5 592.515 146.515 590.5 149 590.5L206 590.5C208.485 590.5 210.5 592.515 210.5 595L210.5 613C210.5 615.485 208.485 617.5 206 617.5L149 617.5C146.515 617.5 144.5 615.485 144.5 613Z" stroke="#3D4B5F" stroke-width="1.33333" stroke-miterlimit="8" fill="#BDD5EC" fill-rule="evenodd"/><text fill="#44546A" font-family="DengXian,DengXian_MSFontService,sans-serif" font-weight="700" font-size="13" transform="translate(150.256 607)">融合</text><text fill="#44546A" font-family="DengXian,DengXian_MSFontService,sans-serif" font-weight="700" font-size="13" transform="translate(176.923 607)">特征</text><path d="M0 0 24.6445 2.74142" stroke="#000000" stroke-width="0.666667" stroke-miterlimit="8" fill="none" fill-rule="evenodd" transform="matrix(1 0 0 -1 210.5 535.241)"/><path d="M210.5 535.5 234.067 568.823" stroke="#000000" stroke-width="0.666667" stroke-miterlimit="8" fill="none" fill-rule="evenodd"/><path d="M210.5 535.5 234.328 605.517" stroke="#000000" stroke-width="0.666667" stroke-miterlimit="8" fill="none" fill-rule="evenodd"/><path d="M0 0 23.8283 37.0224" stroke="#000000" stroke-width="0.666667" stroke-miterlimit="8" fill="none" fill-rule="evenodd" transform="matrix(1 0 0 -1 211.5 569.522)"/><path d="M0 0 22.7512 0.958005" stroke="#000000" stroke-width="0.666667" stroke-miterlimit="8" fill="none" fill-rule="evenodd" transform="matrix(1 0 0 -1 211.5 569.458)"/><path d="M211.5 569.5 234.512 605.236" stroke="#000000" stroke-width="0.666667" stroke-miterlimit="8" fill="none" fill-rule="evenodd"/><path d="M0 0 24.6445 71.4426" stroke="#000000" stroke-width="0.666667" stroke-miterlimit="8" fill="none" fill-rule="evenodd" transform="matrix(1 0 0 -1 210.5 603.943)"/><path d="M0 0 23.5673 35.3783" stroke="#000000" stroke-width="0.666667" stroke-miterlimit="8" fill="none" fill-rule="evenodd" transform="matrix(1 0 0 -1 210.5 603.878)"/><path d="M210.5 603.5 234.328 604.816" stroke="#000000" stroke-width="0.666667" stroke-miterlimit="8" fill="none" fill-rule="evenodd"/></g></svg>